<svg xmlns="http://www.w3.org/2000/svg" xmlns:xlink="http://www.w3.org/1999/xlink" width="1200" zoomAndPan="magnify" viewBox="0 0 900 472.499986" height="630" preserveAspectRatio="xMidYMid meet" version="1.0"><defs><g/><clipPath id="294eb74766"><path d="M 0.476562 0 L 899.523438 0 L 899.523438 472 L 0.476562 472 Z M 0.476562 0 " clip-rule="nonzero"/></clipPath><clipPath id="bcd202d040"><path d="M 0.835938 0.367188 L 507.179688 0.367188 L 507.179688 80 L 0.835938 80 Z M 0.835938 0.367188 " clip-rule="nonzero"/></clipPath><clipPath id="126452df8f"><rect x="0" width="508" y="0" height="80"/></clipPath><clipPath id="d39050c9b9"><path d="M 189 102 L 506 102 L 506 284.464844 L 189 284.464844 Z M 189 102 " clip-rule="nonzero"/></clipPath><clipPath id="2d72de094f"><path d="M 0.0390625 7 L 125 7 L 125 139 L 0.0390625 139 Z M 0.0390625 7 " clip-rule="nonzero"/></clipPath><clipPath id="88eefd8bdb"><path d="M 0.0390625 7 L 125 7 L 125 139 L 0.0390625 139 Z M 0.0390625 7 " clip-rule="nonzero"/></clipPath><clipPath id="e772445921"><rect x="0" width="317" y="0" height="183"/></clipPath><clipPath id="7f56c508c4"><path d="M 4.535156 78.292969 L 184.40625 78.292969 L 184.40625 258.160156 L 4.535156 258.160156 Z M 4.535156 78.292969 " clip-rule="nonzero"/></clipPath><clipPath id="79ff0138e0"><path d="M 94.46875 78.292969 C 44.800781 78.292969 4.535156 118.558594 4.535156 168.226562 C 4.535156 217.894531 44.800781 258.160156 94.46875 258.160156 C 144.140625 258.160156 184.40625 217.894531 184.40625 168.226562 C 184.40625 118.558594 144.140625 78.292969 94.46875 78.292969 Z M 94.46875 78.292969 " clip-rule="nonzero"/></clipPath><clipPath id="82d631ec9a"><path d="M 0.535156 0.292969 L 180.40625 0.292969 L 180.40625 180.160156 L 0.535156 180.160156 Z M 0.535156 0.292969 " clip-rule="nonzero"/></clipPath><clipPath id="e9bbbb4817"><path d="M 90.46875 0.292969 C 40.800781 0.292969 0.535156 40.558594 0.535156 90.226562 C 0.535156 139.894531 40.800781 180.160156 90.46875 180.160156 C 140.140625 180.160156 180.40625 139.894531 180.40625 90.226562 C 180.40625 40.558594 140.140625 0.292969 90.46875 0.292969 Z M 90.46875 0.292969 " clip-rule="nonzero"/></clipPath><clipPath id="73e98fe2c4"><rect x="0" width="181" y="0" height="181"/></clipPath><clipPath id="06e80f6ec7"><path d="M 164.152344 218.820312 L 198.363281 218.820312 L 198.363281 253.03125 L 164.152344 253.03125 Z M 164.152344 218.820312 " clip-rule="nonzero"/></clipPath><clipPath id="b85413916d"><path d="M 181.257812 218.820312 C 171.8125 218.820312 164.152344 226.480469 164.152344 235.925781 C 164.152344 245.375 171.8125 253.03125 181.257812 253.03125 C 190.707031 253.03125 198.363281 245.375 198.363281 235.925781 C 198.363281 226.480469 190.707031 218.820312 181.257812 218.820312 Z M 181.257812 218.820312 " clip-rule="nonzero"/></clipPath><clipPath id="8fbe108d22"><path d="M 0.152344 0.820312 L 34.363281 0.820312 L 34.363281 35.03125 L 0.152344 35.03125 Z M 0.152344 0.820312 " clip-rule="nonzero"/></clipPath><clipPath id="76f6f167d0"><path d="M 17.257812 0.820312 C 7.8125 0.820312 0.152344 8.480469 0.152344 17.925781 C 0.152344 27.375 7.8125 35.03125 17.257812 35.03125 C 26.707031 35.03125 34.363281 27.375 34.363281 17.925781 C 34.363281 8.480469 26.707031 0.820312 17.257812 0.820312 Z M 17.257812 0.820312 " clip-rule="nonzero"/></clipPath><clipPath id="7770c4fa00"><rect x="0" width="35" y="0" height="36"/></clipPath><clipPath id="ab55a6ce7f"><path d="M 77.367188 151.121094 L 111.574219 151.121094 L 111.574219 185.332031 L 77.367188 185.332031 Z M 77.367188 151.121094 " clip-rule="nonzero"/></clipPath><clipPath id="04c7e2d470"><path d="M 94.46875 151.121094 C 85.023438 151.121094 77.367188 158.78125 77.367188 168.226562 C 77.367188 177.671875 85.023438 185.332031 94.46875 185.332031 C 103.917969 185.332031 111.574219 177.671875 111.574219 168.226562 C 111.574219 158.78125 103.917969 151.121094 94.46875 151.121094 Z M 94.46875 151.121094 " clip-rule="nonzero"/></clipPath><clipPath id="0b8a392dec"><path d="M 0.367188 0.121094 L 34.574219 0.121094 L 34.574219 34.332031 L 0.367188 34.332031 Z M 0.367188 0.121094 " clip-rule="nonzero"/></clipPath><clipPath id="5148e27a57"><path d="M 17.46875 0.121094 C 8.023438 0.121094 0.367188 7.78125 0.367188 17.226562 C 0.367188 26.671875 8.023438 34.332031 17.46875 34.332031 C 26.917969 34.332031 34.574219 26.671875 34.574219 17.226562 C 34.574219 7.78125 26.917969 0.121094 17.46875 0.121094 Z M 17.46875 0.121094 " clip-rule="nonzero"/></clipPath><clipPath id="6f31dbfc4d"><rect x="0" width="35" y="0" height="35"/></clipPath><clipPath id="86f6abc2e9"><rect x="0" width="508" y="0" height="285"/></clipPath></defs><g clip-path="url(#294eb74766)"><path fill="#ffffff" d="M 0.476562 0 L 899.523438 0 L 899.523438 472 L 0.476562 472 Z M 0.476562 0 " fill-opacity="1" fill-rule="nonzero"/><path fill="#ffffff" d="M 0.476562 0 L 899.523438 0 L 899.523438 472 L 0.476562 472 Z M 0.476562 0 " fill-opacity="1" fill-rule="nonzero"/></g><path fill="#feac7c" d="M 355.410156 379.78125 C 356.925781 365.457031 334.671875 284.414062 327.148438 273.3125 C 319.621094 262.210938 308.914062 263.207031 273.679688 275.59375 C 238.449219 287.976562 239.964844 329.601562 239.964844 329.601562 C 239.964844 329.601562 231.246094 352.015625 227.40625 358.664062 C 223.566406 365.316406 228.785156 369.808594 234.347656 368.585938 C 239.910156 367.363281 246.148438 361.675781 246.148438 361.675781 L 245.171875 378 C 245.171875 378 245.863281 385.578125 253.703125 381.871094 C 261.542969 378.164062 263.867188 370.847656 263.867188 370.847656 C 263.867188 370.847656 262.96875 384.472656 277.773438 380.777344 C 292.574219 377.078125 298.910156 380.734375 299.964844 383.664062 C 301.015625 386.59375 313.234375 408.21875 314.5 408.949219 C 315.769531 409.679688 347.769531 399.230469 352.5 396.894531 C 357.226562 394.554688 355.410156 379.78125 355.410156 379.78125 Z M 355.410156 379.78125 " fill-opacity="1" fill-rule="nonzero"/><path fill="#ff4b3d" d="M 279.683594 313.46875 C 279.683594 313.46875 287.632812 323.65625 293.898438 327.0625 C 300.164062 330.46875 310.945312 331.730469 317.015625 343.890625 C 320.941406 351.761719 309.019531 351.519531 309.019531 351.519531 C 309.019531 351.519531 289.902344 341.117188 280.109375 329.550781 C 270.316406 317.988281 279.683594 313.46875 279.683594 313.46875 Z M 279.683594 313.46875 " fill-opacity="1" fill-rule="nonzero"/><path fill="#ff4b3d" d="M 245.550781 327.96875 C 245.078125 329.703125 259.265625 347.183594 262.726562 351.609375 C 266.191406 356.035156 279.609375 378.140625 286.308594 381.164062 C 293.007812 384.1875 267.847656 335.246094 258.992188 327.179688 C 250.140625 319.109375 246.257812 327.109375 245.550781 327.96875 Z M 245.550781 327.96875 " fill-opacity="1" fill-rule="nonzero"/><path fill="#7738c7" d="M 41.636719 154.921875 C 41.636719 154.921875 107.773438 133.988281 160.414062 108.640625 C 213.054688 83.292969 241.972656 57.339844 251.480469 70.851562 C 260.992188 84.367188 284.007812 192.246094 309.835938 228.691406 C 335.667969 265.140625 336.363281 261.742188 336.871094 269.636719 C 337.378906 277.53125 265.789062 332.050781 199.925781 362.011719 C 117.96875 399.296875 108.25 393.539062 107.222656 369.71875 C 106.195312 345.902344 61.6875 235.753906 43.824219 203.058594 C 25.964844 170.367188 13.257812 160.917969 41.636719 154.921875 Z M 41.636719 154.921875 " fill-opacity="1" fill-rule="nonzero"/><path fill="#171d8f" d="M 286.644531 178.285156 C 286.621094 187.5625 285.460938 243.554688 261.386719 292.167969 C 235.070312 345.304688 190.355469 365.324219 190.355469 365.324219 C 190.355469 365.324219 190.753906 365.773438 190.980469 366.035156 C 193.871094 364.746094 196.832031 363.421875 199.925781 362.011719 C 265.785156 332.050781 337.382812 277.53125 336.871094 269.636719 C 336.363281 261.738281 335.667969 265.140625 309.839844 228.691406 C 301.71875 217.234375 293.875 198.710938 286.644531 178.285156 Z M 286.644531 178.285156 " fill-opacity="1" fill-rule="nonzero"/><path fill="#feac7c" d="M 298.222656 407.152344 C 295.789062 404.054688 276.953125 391.703125 268.753906 363.113281 C 260.558594 334.523438 240.351562 319.054688 240.003906 305.761719 C 239.65625 292.472656 249.492188 288.230469 261.484375 300.007812 C 273.476562 311.785156 285.773438 330.710938 296.402344 332.414062 C 307.03125 334.117188 321.453125 344.976562 328.25 357.34375 C 335.042969 369.710938 343.992188 385.132812 329.53125 400.101562 C 315.070312 415.070312 303.128906 411.460938 298.222656 407.152344 Z M 298.222656 407.152344 " fill-opacity="1" fill-rule="nonzero"/><path fill="#ff4b3d" d="M 246.148438 361.671875 C 246.148438 361.671875 251.238281 349.199219 252.402344 345.542969 C 253.5625 341.886719 249.800781 349.320312 247.117188 353.785156 C 244.429688 358.253906 246.148438 361.671875 246.148438 361.671875 Z M 246.148438 361.671875 " fill-opacity="1" fill-rule="nonzero"/><path fill="#ff4b3d" d="M 293.101562 330.128906 C 293.574219 329.058594 298.765625 324.070312 303.925781 322.121094 C 309.082031 320.171875 300.28125 317.703125 295.867188 321.722656 C 291.457031 325.746094 289.589844 326.90625 289.589844 326.90625 Z M 293.101562 330.128906 " fill-opacity="1" fill-rule="nonzero"/><path fill="#ffffff" d="M 115.074219 184.804688 C 115.074219 184.804688 120.863281 137.4375 167.703125 131.648438 C 214.542969 125.859375 261.382812 173.226562 236.121094 212.695312 C 210.859375 252.167969 182.964844 250.589844 178.226562 268.484375 C 173.492188 286.378906 181.914062 303.746094 165.597656 305.324219 C 149.28125 306.90625 146.652344 264.800781 162.441406 248.484375 C 178.226562 232.171875 219.804688 213.75 212.964844 185.328125 C 206.121094 156.910156 176.648438 155.855469 162.964844 170.066406 C 149.28125 184.277344 162.441406 196.382812 147.175781 206.90625 C 131.914062 217.433594 108.757812 217.960938 115.074219 184.804688 Z M 115.074219 184.804688 " fill-opacity="1" fill-rule="nonzero"/><path fill="#ffffff" d="M 153.09375 321.410156 C 147.304688 330.882812 146.253906 349.832031 163.621094 347.199219 C 180.988281 344.566406 178.359375 330.882812 177.832031 324.042969 C 177.304688 317.199219 161.515625 310.359375 153.09375 321.410156 Z M 153.09375 321.410156 " fill-opacity="1" fill-rule="nonzero"/><path fill="#ffc517" d="M 265.546875 98.742188 C 265.546875 98.742188 282.105469 64.773438 318.667969 72.527344 C 355.226562 80.28125 378.070312 127.828125 348.972656 150.859375 C 319.871094 173.890625 299.398438 165.511719 291.234375 177.683594 C 283.070312 189.859375 284.894531 205.03125 272.269531 202.003906 C 259.652344 198.976562 268.546875 166.777344 284.574219 158.636719 C 300.605469 150.5 336.484375 147.4375 338.695312 124.394531 C 340.910156 101.355469 319.117188 92.960938 305.207031 100.066406 C 291.292969 107.175781 298.019531 119.632812 283.878906 123.574219 C 269.738281 127.515625 252.265625 121.933594 265.546875 98.742188 Z M 265.546875 98.742188 " fill-opacity="1" fill-rule="nonzero"/><path fill="#ffc517" d="M 258.761719 210.820312 C 251.980469 216.417969 246.304688 230.328125 259.984375 232.839844 C 273.667969 235.351562 275.226562 224.429688 276.601562 219.171875 C 277.96875 213.914062 267.917969 204.71875 258.761719 210.820312 Z M 258.761719 210.820312 " fill-opacity="1" fill-rule="nonzero"/><path fill="#ff4b3d" d="M 20.0625 320.109375 C 20.0625 320.109375 10.457031 289.582031 37.449219 273.050781 C 64.441406 256.519531 106.179688 272.441406 101.710938 303.550781 C 97.238281 334.660156 79.769531 341.433594 81.84375 353.675781 C 83.917969 365.914062 93.878906 374.183594 84.355469 379.671875 C 74.832031 385.164062 61.542969 360.1875 66.65625 345.847656 C 71.765625 331.503906 92.042969 308.722656 79.976562 293.265625 C 67.914062 277.8125 49.628906 285.351562 45.214844 297.824219 C 40.804688 310.296875 52.195312 314.035156 45.800781 324.695312 C 39.402344 335.359375 25.410156 342.105469 20.0625 320.109375 Z M 20.0625 320.109375 " fill-opacity="1" fill-rule="nonzero"/><path fill="#ff4b3d" d="M 81.183594 392.964844 C 80.277344 400.355469 84.894531 412.214844 94.765625 405.789062 C 104.640625 399.363281 99.238281 391.738281 97.015625 387.707031 C 94.796875 383.675781 83.257812 383.878906 81.183594 392.964844 Z M 81.183594 392.964844 " fill-opacity="1" fill-rule="nonzero"/><path fill="#fecd91" d="M 249.542969 298.878906 C 249.019531 298.878906 241.78125 299.402344 244.808594 309.007812 C 247.832031 318.613281 250.597656 319.402344 255.859375 317.429688 C 261.121094 315.457031 265.332031 310.324219 260.726562 306.246094 C 256.121094 302.167969 253.492188 298.746094 249.542969 298.878906 Z M 249.542969 298.878906 " fill-opacity="1" fill-rule="nonzero"/><g transform="matrix(1, 0, 0, 1, 377, 108)"><g clip-path="url(#86f6abc2e9)"><g clip-path="url(#bcd202d040)"><g transform="matrix(1, 0, 0, 1, -0.000000000000056843, -0.000000000000028422)"><g clip-path="url(#126452df8f)"><g fill="#fdb811" fill-opacity="0.4"><g transform="translate(2.705555, 63.738106)"><g><path d="M 38.546875 -59.09375 L 68.734375 -59.09375 L 56.578125 -30.03125 L 68.46875 0 L 38.15625 0 L 34.28125 -12.421875 L 31.984375 -11.390625 L 31.984375 0 L 3.078125 0 L 3.078125 -59.09375 L 31.984375 -59.09375 L 31.984375 -39.0625 Z M 38.546875 -59.09375 "/></g></g><g transform="translate(71.968243, 63.738106)"><g><path d="M 46.09375 0 L 14.5625 0 L -0.34375 -59.140625 L 28.546875 -59.140625 L 32.9375 -28.546875 L 33.40625 -24.328125 L 33.796875 -24.328125 L 34.28125 -28.59375 L 38.890625 -59.140625 L 58.65625 -59.140625 L 63.171875 -28.59375 L 63.65625 -24.328125 L 64.046875 -24.328125 L 64.515625 -28.546875 L 69 -59.140625 L 97.796875 -59.140625 L 82.859375 0 L 51.359375 0 L 48.875 -21.59375 L 48.578125 -21.59375 Z M 46.09375 0 "/></g></g><g transform="translate(169.431359, 63.738106)"><g><path d="M 41.140625 0 L 12.25 0 L 12.25 -35.1875 L 0.265625 -35.1875 L 0.265625 -59.09375 L 53.015625 -59.09375 L 53.015625 -35.1875 L 41.140625 -35.1875 Z M 41.140625 0 "/></g></g><g transform="translate(222.703665, 63.738106)"><g/></g><g transform="translate(245.776743, 63.738106)"><g><path d="M 46.53125 0 L 3.078125 0 L 3.078125 -59.09375 L 31.984375 -59.09375 L 31.984375 -23.890625 L 46.53125 -23.890625 Z M 46.53125 0 "/></g></g><g transform="translate(293.878245, 63.738106)"><g><path d="M 34.84375 1.65625 C 27.71875 1.65625 21.617188 0.414062 16.546875 -2.0625 C 11.484375 -4.539062 7.601562 -8.117188 4.90625 -12.796875 C 2.21875 -17.472656 0.875 -23.082031 0.875 -29.625 C 0.875 -36.175781 2.21875 -41.769531 4.90625 -46.40625 C 7.601562 -51.039062 11.484375 -54.59375 16.546875 -57.0625 C 21.617188 -59.539062 27.71875 -60.78125 34.84375 -60.78125 C 41.96875 -60.78125 48.070312 -59.539062 53.15625 -57.0625 C 58.238281 -54.59375 62.128906 -51.039062 64.828125 -46.40625 C 67.523438 -41.769531 68.875 -36.175781 68.875 -29.625 C 68.875 -23.082031 67.523438 -17.472656 64.828125 -12.796875 C 62.128906 -8.117188 58.238281 -4.539062 53.15625 -2.0625 C 48.070312 0.414062 41.96875 1.65625 34.84375 1.65625 Z M 34.796875 -24.984375 C 36.078125 -24.984375 37.148438 -25.429688 38.015625 -26.328125 C 38.890625 -27.222656 39.328125 -28.335938 39.328125 -29.671875 C 39.328125 -31.003906 38.890625 -32.117188 38.015625 -33.015625 C 37.148438 -33.921875 36.078125 -34.375 34.796875 -34.375 C 33.554688 -34.375 32.492188 -33.921875 31.609375 -33.015625 C 30.722656 -32.117188 30.28125 -31.003906 30.28125 -29.671875 C 30.28125 -28.335938 30.722656 -27.222656 31.609375 -26.328125 C 32.492188 -25.429688 33.554688 -24.984375 34.796875 -24.984375 Z M 34.796875 -24.984375 "/></g></g><g transform="translate(363.618907, 63.738106)"><g><path d="M 34.40625 1.609375 C 29.769531 1.609375 25.425781 0.914062 21.375 -0.46875 C 17.320312 -1.863281 13.757812 -3.894531 10.6875 -6.5625 C 7.613281 -9.226562 5.207031 -12.5 3.46875 -16.375 C 1.738281 -20.257812 0.875 -24.675781 0.875 -29.625 C 0.875 -34.582031 1.738281 -38.992188 3.46875 -42.859375 C 5.207031 -46.722656 7.613281 -49.976562 10.6875 -52.625 C 13.757812 -55.28125 17.320312 -57.296875 21.375 -58.671875 C 25.425781 -60.054688 29.769531 -60.75 34.40625 -60.75 C 37.445312 -60.75 40.46875 -60.445312 43.46875 -59.84375 C 46.46875 -59.25 49.320312 -58.304688 52.03125 -57.015625 C 54.738281 -55.734375 57.164062 -54.054688 59.3125 -51.984375 C 61.457031 -49.910156 63.191406 -47.40625 64.515625 -44.46875 C 65.847656 -41.53125 66.632812 -38.117188 66.875 -34.234375 L 39.1875 -34.234375 C 38.582031 -35.128906 37.890625 -35.765625 37.109375 -36.140625 C 36.328125 -36.523438 35.351562 -36.71875 34.1875 -36.71875 C 33.289062 -36.71875 32.363281 -36.457031 31.40625 -35.9375 C 30.457031 -35.414062 29.65625 -34.601562 29 -33.5 C 28.351562 -32.394531 28.03125 -30.972656 28.03125 -29.234375 C 28.03125 -28.023438 28.273438 -26.832031 28.765625 -25.65625 C 29.253906 -24.476562 29.960938 -23.503906 30.890625 -22.734375 C 31.816406 -21.972656 32.90625 -21.59375 34.15625 -21.59375 C 35.65625 -21.59375 36.882812 -21.941406 37.84375 -22.640625 C 38.800781 -23.335938 39.410156 -24.160156 39.671875 -25.109375 L 33.59375 -25.109375 L 33.59375 -30.765625 L 66.90625 -30.765625 C 67.019531 -25.378906 66.332031 -20.664062 64.84375 -16.625 C 63.351562 -12.582031 61.179688 -9.210938 58.328125 -6.515625 C 55.472656 -3.828125 52.023438 -1.800781 47.984375 -0.4375 C 43.941406 0.925781 39.414062 1.609375 34.40625 1.609375 Z M 34.40625 1.609375 "/></g></g><g transform="translate(431.404222, 63.738106)"><g><path d="M 34.84375 1.65625 C 27.71875 1.65625 21.617188 0.414062 16.546875 -2.0625 C 11.484375 -4.539062 7.601562 -8.117188 4.90625 -12.796875 C 2.21875 -17.472656 0.875 -23.082031 0.875 -29.625 C 0.875 -36.175781 2.21875 -41.769531 4.90625 -46.40625 C 7.601562 -51.039062 11.484375 -54.59375 16.546875 -57.0625 C 21.617188 -59.539062 27.71875 -60.78125 34.84375 -60.78125 C 41.96875 -60.78125 48.070312 -59.539062 53.15625 -57.0625 C 58.238281 -54.59375 62.128906 -51.039062 64.828125 -46.40625 C 67.523438 -41.769531 68.875 -36.175781 68.875 -29.625 C 68.875 -23.082031 67.523438 -17.472656 64.828125 -12.796875 C 62.128906 -8.117188 58.238281 -4.539062 53.15625 -2.0625 C 48.070312 0.414062 41.96875 1.65625 34.84375 1.65625 Z M 34.796875 -24.984375 C 36.078125 -24.984375 37.148438 -25.429688 38.015625 -26.328125 C 38.890625 -27.222656 39.328125 -28.335938 39.328125 -29.671875 C 39.328125 -31.003906 38.890625 -32.117188 38.015625 -33.015625 C 37.148438 -33.921875 36.078125 -34.375 34.796875 -34.375 C 33.554688 -34.375 32.492188 -33.921875 31.609375 -33.015625 C 30.722656 -32.117188 30.28125 -31.003906 30.28125 -29.671875 C 30.28125 -28.335938 30.722656 -27.222656 31.609375 -26.328125 C 32.492188 -25.429688 33.554688 -24.984375 34.796875 -24.984375 Z M 34.796875 -24.984375 "/></g></g></g><g fill="#ffc517" fill-opacity="1"><g transform="translate(2.705555, 63.738106)"><g><path d="M 38.546875 -59.09375 L 68.734375 -59.09375 L 56.578125 -30.03125 L 68.46875 0 L 38.15625 0 L 34.28125 -12.421875 L 31.984375 -11.390625 L 31.984375 0 L 3.078125 0 L 3.078125 -59.09375 L 31.984375 -59.09375 L 31.984375 -39.0625 Z M 38.546875 -59.09375 "/></g></g><g transform="translate(71.968243, 63.738106)"><g><path d="M 46.09375 0 L 14.5625 0 L -0.34375 -59.140625 L 28.546875 -59.140625 L 32.9375 -28.546875 L 33.40625 -24.328125 L 33.796875 -24.328125 L 34.28125 -28.59375 L 38.890625 -59.140625 L 58.65625 -59.140625 L 63.171875 -28.59375 L 63.65625 -24.328125 L 64.046875 -24.328125 L 64.515625 -28.546875 L 69 -59.140625 L 97.796875 -59.140625 L 82.859375 0 L 51.359375 0 L 48.875 -21.59375 L 48.578125 -21.59375 Z M 46.09375 0 "/></g></g><g transform="translate(169.431359, 63.738106)"><g><path d="M 41.140625 0 L 12.25 0 L 12.25 -35.1875 L 0.265625 -35.1875 L 0.265625 -59.09375 L 53.015625 -59.09375 L 53.015625 -35.1875 L 41.140625 -35.1875 Z M 41.140625 0 "/></g></g><g transform="translate(222.703665, 63.738106)"><g/></g><g transform="translate(245.776743, 63.738106)"><g><path d="M 46.53125 0 L 3.078125 0 L 3.078125 -59.09375 L 31.984375 -59.09375 L 31.984375 -23.890625 L 46.53125 -23.890625 Z M 46.53125 0 "/></g></g><g transform="translate(293.878245, 63.738106)"><g><path d="M 34.84375 1.65625 C 27.71875 1.65625 21.617188 0.414062 16.546875 -2.0625 C 11.484375 -4.539062 7.601562 -8.117188 4.90625 -12.796875 C 2.21875 -17.472656 0.875 -23.082031 0.875 -29.625 C 0.875 -36.175781 2.21875 -41.769531 4.90625 -46.40625 C 7.601562 -51.039062 11.484375 -54.59375 16.546875 -57.0625 C 21.617188 -59.539062 27.71875 -60.78125 34.84375 -60.78125 C 41.96875 -60.78125 48.070312 -59.539062 53.15625 -57.0625 C 58.238281 -54.59375 62.128906 -51.039062 64.828125 -46.40625 C 67.523438 -41.769531 68.875 -36.175781 68.875 -29.625 C 68.875 -23.082031 67.523438 -17.472656 64.828125 -12.796875 C 62.128906 -8.117188 58.238281 -4.539062 53.15625 -2.0625 C 48.070312 0.414062 41.96875 1.65625 34.84375 1.65625 Z M 34.796875 -24.984375 C 36.078125 -24.984375 37.148438 -25.429688 38.015625 -26.328125 C 38.890625 -27.222656 39.328125 -28.335938 39.328125 -29.671875 C 39.328125 -31.003906 38.890625 -32.117188 38.015625 -33.015625 C 37.148438 -33.921875 36.078125 -34.375 34.796875 -34.375 C 33.554688 -34.375 32.492188 -33.921875 31.609375 -33.015625 C 30.722656 -32.117188 30.28125 -31.003906 30.28125 -29.671875 C 30.28125 -28.335938 30.722656 -27.222656 31.609375 -26.328125 C 32.492188 -25.429688 33.554688 -24.984375 34.796875 -24.984375 Z M 34.796875 -24.984375 "/></g></g><g transform="translate(363.618907, 63.738106)"><g><path d="M 34.40625 1.609375 C 29.769531 1.609375 25.425781 0.914062 21.375 -0.46875 C 17.320312 -1.863281 13.757812 -3.894531 10.6875 -6.5625 C 7.613281 -9.226562 5.207031 -12.5 3.46875 -16.375 C 1.738281 -20.257812 0.875 -24.675781 0.875 -29.625 C 0.875 -34.582031 1.738281 -38.992188 3.46875 -42.859375 C 5.207031 -46.722656 7.613281 -49.976562 10.6875 -52.625 C 13.757812 -55.28125 17.320312 -57.296875 21.375 -58.671875 C 25.425781 -60.054688 29.769531 -60.75 34.40625 -60.75 C 37.445312 -60.75 40.46875 -60.445312 43.46875 -59.84375 C 46.46875 -59.25 49.320312 -58.304688 52.03125 -57.015625 C 54.738281 -55.734375 57.164062 -54.054688 59.3125 -51.984375 C 61.457031 -49.910156 63.191406 -47.40625 64.515625 -44.46875 C 65.847656 -41.53125 66.632812 -38.117188 66.875 -34.234375 L 39.1875 -34.234375 C 38.582031 -35.128906 37.890625 -35.765625 37.109375 -36.140625 C 36.328125 -36.523438 35.351562 -36.71875 34.1875 -36.71875 C 33.289062 -36.71875 32.363281 -36.457031 31.40625 -35.9375 C 30.457031 -35.414062 29.65625 -34.601562 29 -33.5 C 28.351562 -32.394531 28.03125 -30.972656 28.03125 -29.234375 C 28.03125 -28.023438 28.273438 -26.832031 28.765625 -25.65625 C 29.253906 -24.476562 29.960938 -23.503906 30.890625 -22.734375 C 31.816406 -21.972656 32.90625 -21.59375 34.15625 -21.59375 C 35.65625 -21.59375 36.882812 -21.941406 37.84375 -22.640625 C 38.800781 -23.335938 39.410156 -24.160156 39.671875 -25.109375 L 33.59375 -25.109375 L 33.59375 -30.765625 L 66.90625 -30.765625 C 67.019531 -25.378906 66.332031 -20.664062 64.84375 -16.625 C 63.351562 -12.582031 61.179688 -9.210938 58.328125 -6.515625 C 55.472656 -3.828125 52.023438 -1.800781 47.984375 -0.4375 C 43.941406 0.925781 39.414062 1.609375 34.40625 1.609375 Z M 34.40625 1.609375 "/></g></g><g transform="translate(431.404222, 63.738106)"><g><path d="M 34.84375 1.65625 C 27.71875 1.65625 21.617188 0.414062 16.546875 -2.0625 C 11.484375 -4.539062 7.601562 -8.117188 4.90625 -12.796875 C 2.21875 -17.472656 0.875 -23.082031 0.875 -29.625 C 0.875 -36.175781 2.21875 -41.769531 4.90625 -46.40625 C 7.601562 -51.039062 11.484375 -54.59375 16.546875 -57.0625 C 21.617188 -59.539062 27.71875 -60.78125 34.84375 -60.78125 C 41.96875 -60.78125 48.070312 -59.539062 53.15625 -57.0625 C 58.238281 -54.59375 62.128906 -51.039062 64.828125 -46.40625 C 67.523438 -41.769531 68.875 -36.175781 68.875 -29.625 C 68.875 -23.082031 67.523438 -17.472656 64.828125 -12.796875 C 62.128906 -8.117188 58.238281 -4.539062 53.15625 -2.0625 C 48.070312 0.414062 41.96875 1.65625 34.84375 1.65625 Z M 34.796875 -24.984375 C 36.078125 -24.984375 37.148438 -25.429688 38.015625 -26.328125 C 38.890625 -27.222656 39.328125 -28.335938 39.328125 -29.671875 C 39.328125 -31.003906 38.890625 -32.117188 38.015625 -33.015625 C 37.148438 -33.921875 36.078125 -34.375 34.796875 -34.375 C 33.554688 -34.375 32.492188 -33.921875 31.609375 -33.015625 C 30.722656 -32.117188 30.28125 -31.003906 30.28125 -29.671875 C 30.28125 -28.335938 30.722656 -27.222656 31.609375 -26.328125 C 32.492188 -25.429688 33.554688 -24.984375 34.796875 -24.984375 Z M 34.796875 -24.984375 "/></g></g></g></g></g></g><g clip-path="url(#d39050c9b9)"><g transform="matrix(1, 0, 0, 1, 189, 102)"><g clip-path="url(#e772445921)"><g clip-path="url(#2d72de094f)"><g fill="#fdb811" fill-opacity="0.4"><g transform="translate(0.251175, 136.918742)"><g><path d="M 62.03125 1.265625 C 53.539062 1.265625 45.535156 -0.367188 38.015625 -3.640625 C 30.492188 -6.910156 23.882812 -11.394531 18.1875 -17.09375 C 12.488281 -22.789062 8.03125 -29.367188 4.8125 -36.828125 C 1.601562 -44.285156 0 -52.257812 0 -60.75 L 0 -99.859375 C 0 -105.191406 1.300781 -110.070312 3.90625 -114.5 C 6.519531 -118.925781 10.066406 -122.472656 14.546875 -125.140625 C 19.035156 -127.804688 23.945312 -129.140625 29.28125 -129.140625 C 34.613281 -129.140625 39.460938 -127.804688 43.828125 -125.140625 C 48.203125 -122.472656 51.660156 -118.925781 54.203125 -114.5 C 56.742188 -110.070312 58.015625 -105.191406 58.015625 -99.859375 L 58.015625 -64.203125 C 58.015625 -63.117188 58.378906 -62.085938 59.109375 -61.109375 C 59.835938 -60.140625 60.8125 -59.65625 62.03125 -59.65625 C 63.113281 -59.65625 64.050781 -60.140625 64.84375 -61.109375 C 65.632812 -62.085938 66.03125 -63.117188 66.03125 -64.203125 L 66.03125 -99.859375 C 66.03125 -105.191406 67.332031 -110.070312 69.9375 -114.5 C 72.539062 -118.925781 76.085938 -122.472656 80.578125 -125.140625 C 85.066406 -127.804688 89.976562 -129.140625 95.3125 -129.140625 C 100.519531 -129.140625 105.273438 -127.804688 109.578125 -125.140625 C 113.890625 -122.472656 117.378906 -118.925781 120.046875 -114.5 C 122.710938 -110.070312 124.046875 -105.191406 124.046875 -99.859375 L 124.046875 -60.75 C 124.046875 -52.257812 122.410156 -44.285156 119.140625 -36.828125 C 115.867188 -29.367188 111.378906 -22.789062 105.671875 -17.09375 C 99.972656 -11.394531 93.394531 -6.910156 85.9375 -3.640625 C 78.476562 -0.367188 70.507812 1.265625 62.03125 1.265625 Z M 62.03125 1.265625 "/></g></g></g></g><g fill="#fdb811" fill-opacity="0.4"><g transform="translate(129.395121, 136.918742)"><g><path d="M 28.734375 -0.1875 C 23.398438 -0.1875 18.550781 -1.519531 14.1875 -4.1875 C 9.820312 -6.851562 6.363281 -10.398438 3.8125 -14.828125 C 1.269531 -19.253906 0 -24.070312 0 -29.28125 L 0 -100.21875 C 0 -105.550781 1.269531 -110.367188 3.8125 -114.671875 C 6.363281 -118.984375 9.820312 -122.410156 14.1875 -124.953125 C 18.550781 -127.503906 23.398438 -128.78125 28.734375 -128.78125 C 34.316406 -128.78125 39.289062 -127.503906 43.65625 -124.953125 C 48.019531 -122.410156 51.503906 -118.984375 54.109375 -114.671875 C 56.710938 -110.367188 58.015625 -105.550781 58.015625 -100.21875 L 58.015625 -29.28125 C 58.015625 -24.070312 56.710938 -19.253906 54.109375 -14.828125 C 51.503906 -10.398438 48.019531 -6.851562 43.65625 -4.1875 C 39.289062 -1.519531 34.316406 -0.1875 28.734375 -0.1875 Z M 28.734375 -0.1875 "/></g></g></g><g fill="#fdb811" fill-opacity="0.4"><g transform="translate(193.239518, 136.918742)"><g><path d="M 88.03125 -129.328125 C 95.1875 -129.328125 101.035156 -127.566406 105.578125 -124.046875 C 110.128906 -120.535156 113.34375 -116.109375 115.21875 -110.765625 C 117.101562 -105.429688 117.5 -99.914062 116.40625 -94.21875 C 115.3125 -88.519531 112.644531 -83.546875 108.40625 -79.296875 C 103.550781 -74.328125 98.515625 -69.265625 93.296875 -64.109375 C 88.085938 -58.960938 82.816406 -53.722656 77.484375 -48.390625 C 77.242188 -47.898438 77.304688 -47.410156 77.671875 -46.921875 C 78.035156 -46.441406 78.457031 -46.441406 78.9375 -46.921875 L 94.953125 -57.484375 C 101.492188 -55.898438 106.882812 -52.625 111.125 -47.65625 C 115.375 -42.6875 117.5 -36.441406 117.5 -28.921875 C 117.5 -24.066406 116.195312 -19.457031 113.59375 -15.09375 C 110.988281 -10.726562 107.5 -7.117188 103.125 -4.265625 C 98.757812 -1.421875 93.910156 0 88.578125 0 L 28.1875 0 C 22.851562 0 17.941406 -1.300781 13.453125 -3.90625 C 8.972656 -6.519531 5.398438 -10.007812 2.734375 -14.375 C 0.0664062 -18.738281 -1.265625 -23.585938 -1.265625 -28.921875 C -1.265625 -33.523438 -0.296875 -37.675781 1.640625 -41.375 C 3.578125 -45.070312 6.0625 -48.253906 9.09375 -50.921875 L 38.015625 -80.390625 C 38.617188 -80.878906 38.675781 -81.394531 38.1875 -81.9375 C 37.707031 -82.488281 37.164062 -82.640625 36.5625 -82.390625 L 21.640625 -71.84375 C 15.210938 -73.425781 9.847656 -76.820312 5.546875 -82.03125 C 1.242188 -87.25 -0.90625 -93.375 -0.90625 -100.40625 C -0.90625 -105.738281 0.394531 -110.585938 3 -114.953125 C 5.601562 -119.316406 9.117188 -122.800781 13.546875 -125.40625 C 17.972656 -128.019531 22.851562 -129.328125 28.1875 -129.328125 Z M 88.03125 -129.328125 "/></g></g></g><g clip-path="url(#88eefd8bdb)"><g fill="#ff4b3d" fill-opacity="1"><g transform="translate(0.251175, 136.918742)"><g><path d="M 62.03125 1.265625 C 53.539062 1.265625 45.535156 -0.367188 38.015625 -3.640625 C 30.492188 -6.910156 23.882812 -11.394531 18.1875 -17.09375 C 12.488281 -22.789062 8.03125 -29.367188 4.8125 -36.828125 C 1.601562 -44.285156 0 -52.257812 0 -60.75 L 0 -99.859375 C 0 -105.191406 1.300781 -110.070312 3.90625 -114.5 C 6.519531 -118.925781 10.066406 -122.472656 14.546875 -125.140625 C 19.035156 -127.804688 23.945312 -129.140625 29.28125 -129.140625 C 34.613281 -129.140625 39.460938 -127.804688 43.828125 -125.140625 C 48.203125 -122.472656 51.660156 -118.925781 54.203125 -114.5 C 56.742188 -110.070312 58.015625 -105.191406 58.015625 -99.859375 L 58.015625 -64.203125 C 58.015625 -63.117188 58.378906 -62.085938 59.109375 -61.109375 C 59.835938 -60.140625 60.8125 -59.65625 62.03125 -59.65625 C 63.113281 -59.65625 64.050781 -60.140625 64.84375 -61.109375 C 65.632812 -62.085938 66.03125 -63.117188 66.03125 -64.203125 L 66.03125 -99.859375 C 66.03125 -105.191406 67.332031 -110.070312 69.9375 -114.5 C 72.539062 -118.925781 76.085938 -122.472656 80.578125 -125.140625 C 85.066406 -127.804688 89.976562 -129.140625 95.3125 -129.140625 C 100.519531 -129.140625 105.273438 -127.804688 109.578125 -125.140625 C 113.890625 -122.472656 117.378906 -118.925781 120.046875 -114.5 C 122.710938 -110.070312 124.046875 -105.191406 124.046875 -99.859375 L 124.046875 -60.75 C 124.046875 -52.257812 122.410156 -44.285156 119.140625 -36.828125 C 115.867188 -29.367188 111.378906 -22.789062 105.671875 -17.09375 C 99.972656 -11.394531 93.394531 -6.910156 85.9375 -3.640625 C 78.476562 -0.367188 70.507812 1.265625 62.03125 1.265625 Z M 62.03125 1.265625 "/></g></g></g></g><g fill="#ff4b3d" fill-opacity="1"><g transform="translate(129.395121, 136.918742)"><g><path d="M 28.734375 -0.1875 C 23.398438 -0.1875 18.550781 -1.519531 14.1875 -4.1875 C 9.820312 -6.851562 6.363281 -10.398438 3.8125 -14.828125 C 1.269531 -19.253906 0 -24.070312 0 -29.28125 L 0 -100.21875 C 0 -105.550781 1.269531 -110.367188 3.8125 -114.671875 C 6.363281 -118.984375 9.820312 -122.410156 14.1875 -124.953125 C 18.550781 -127.503906 23.398438 -128.78125 28.734375 -128.78125 C 34.316406 -128.78125 39.289062 -127.503906 43.65625 -124.953125 C 48.019531 -122.410156 51.503906 -118.984375 54.109375 -114.671875 C 56.710938 -110.367188 58.015625 -105.550781 58.015625 -100.21875 L 58.015625 -29.28125 C 58.015625 -24.070312 56.710938 -19.253906 54.109375 -14.828125 C 51.503906 -10.398438 48.019531 -6.851562 43.65625 -4.1875 C 39.289062 -1.519531 34.316406 -0.1875 28.734375 -0.1875 Z M 28.734375 -0.1875 "/></g></g></g><g fill="#ff4b3d" fill-opacity="1"><g transform="translate(193.239518, 136.918742)"><g><path d="M 88.03125 -129.328125 C 95.1875 -129.328125 101.035156 -127.566406 105.578125 -124.046875 C 110.128906 -120.535156 113.34375 -116.109375 115.21875 -110.765625 C 117.101562 -105.429688 117.5 -99.914062 116.40625 -94.21875 C 115.3125 -88.519531 112.644531 -83.546875 108.40625 -79.296875 C 103.550781 -74.328125 98.515625 -69.265625 93.296875 -64.109375 C 88.085938 -58.960938 82.816406 -53.722656 77.484375 -48.390625 C 77.242188 -47.898438 77.304688 -47.410156 77.671875 -46.921875 C 78.035156 -46.441406 78.457031 -46.441406 78.9375 -46.921875 L 94.953125 -57.484375 C 101.492188 -55.898438 106.882812 -52.625 111.125 -47.65625 C 115.375 -42.6875 117.5 -36.441406 117.5 -28.921875 C 117.5 -24.066406 116.195312 -19.457031 113.59375 -15.09375 C 110.988281 -10.726562 107.5 -7.117188 103.125 -4.265625 C 98.757812 -1.421875 93.910156 0 88.578125 0 L 28.1875 0 C 22.851562 0 17.941406 -1.300781 13.453125 -3.90625 C 8.972656 -6.519531 5.398438 -10.007812 2.734375 -14.375 C 0.0664062 -18.738281 -1.265625 -23.585938 -1.265625 -28.921875 C -1.265625 -33.523438 -0.296875 -37.675781 1.640625 -41.375 C 3.578125 -45.070312 6.0625 -48.253906 9.09375 -50.921875 L 38.015625 -80.390625 C 38.617188 -80.878906 38.675781 -81.394531 38.1875 -81.9375 C 37.707031 -82.488281 37.164062 -82.640625 36.5625 -82.390625 L 21.640625 -71.84375 C 15.210938 -73.425781 9.847656 -76.820312 5.546875 -82.03125 C 1.242188 -87.25 -0.90625 -93.375 -0.90625 -100.40625 C -0.90625 -105.738281 0.394531 -110.585938 3 -114.953125 C 5.601562 -119.316406 9.117188 -122.800781 13.546875 -125.40625 C 17.972656 -128.019531 22.851562 -129.328125 28.1875 -129.328125 Z M 88.03125 -129.328125 "/></g></g></g></g></g></g><g clip-path="url(#7f56c508c4)"><g clip-path="url(#79ff0138e0)"><g transform="matrix(1, 0, 0, 1, 4, 78)"><g clip-path="url(#73e98fe2c4)"><g clip-path="url(#82d631ec9a)"><g clip-path="url(#e9bbbb4817)"><path fill="#ff4b3d" d="M 0.535156 0.292969 L 180.40625 0.292969 L 180.40625 180.160156 L 0.535156 180.160156 Z M 0.535156 0.292969 " fill-opacity="1" fill-rule="nonzero"/></g></g></g></g></g></g><g clip-path="url(#06e80f6ec7)"><g clip-path="url(#b85413916d)"><g transform="matrix(1, 0, 0, 1, 164, 218)"><g clip-path="url(#7770c4fa00)"><g clip-path="url(#8fbe108d22)"><g clip-path="url(#76f6f167d0)"><path fill="#ff4b3d" d="M 0.152344 0.820312 L 34.363281 0.820312 L 34.363281 35.03125 L 0.152344 35.03125 Z M 0.152344 0.820312 " fill-opacity="1" fill-rule="nonzero"/></g></g></g></g></g></g><g clip-path="url(#ab55a6ce7f)"><g clip-path="url(#04c7e2d470)"><g transform="matrix(1, 0, 0, 1, 77, 151)"><g clip-path="url(#6f31dbfc4d)"><g clip-path="url(#0b8a392dec)"><g clip-path="url(#5148e27a57)"><path fill="#ffffff" d="M 0.367188 0.121094 L 34.574219 0.121094 L 34.574219 34.332031 L 0.367188 34.332031 Z M 0.367188 0.121094 " fill-opacity="1" fill-rule="nonzero"/></g></g></g></g></g></g></g></g></svg>