<svg xmlns="http://www.w3.org/2000/svg" xmlns:xlink="http://www.w3.org/1999/xlink" width="1920" zoomAndPan="magnify" viewBox="0 0 1440 809.999993" height="1080" preserveAspectRatio="xMidYMid meet" version="1.0"><defs><g/><clipPath id="c5f2a57f40"><rect x="0" width="874" y="0" height="137"/></clipPath><clipPath id="b01507daa6"><path d="M 0.359375 12 L 215 12 L 215 238 L 0.359375 238 Z M 0.359375 12 " clip-rule="nonzero"/></clipPath><clipPath id="228c0f7275"><path d="M 0.359375 12 L 215 12 L 215 238 L 0.359375 238 Z M 0.359375 12 " clip-rule="nonzero"/></clipPath><clipPath id="f2aa883bca"><rect x="0" width="545" y="0" height="314"/></clipPath><clipPath id="cf156072de"><path d="M 567.421875 321.542969 L 877.167969 321.542969 L 877.167969 631.289062 L 567.421875 631.289062 Z M 567.421875 321.542969 " clip-rule="nonzero"/></clipPath><clipPath id="c5035011a1"><path d="M 722.296875 321.542969 C 636.761719 321.542969 567.421875 390.882812 567.421875 476.414062 C 567.421875 561.949219 636.761719 631.289062 722.296875 631.289062 C 807.832031 631.289062 877.167969 561.949219 877.167969 476.414062 C 877.167969 390.882812 807.832031 321.542969 722.296875 321.542969 Z M 722.296875 321.542969 " clip-rule="nonzero"/></clipPath><clipPath id="104c2d5435"><path d="M 0.421875 0.542969 L 310.167969 0.542969 L 310.167969 310.289062 L 0.421875 310.289062 Z M 0.421875 0.542969 " clip-rule="nonzero"/></clipPath><clipPath id="6abe541bf5"><path d="M 155.296875 0.542969 C 69.761719 0.542969 0.421875 69.882812 0.421875 155.414062 C 0.421875 240.949219 69.761719 310.289062 155.296875 310.289062 C 240.832031 310.289062 310.167969 240.949219 310.167969 155.414062 C 310.167969 69.882812 240.832031 0.542969 155.296875 0.542969 Z M 155.296875 0.542969 " clip-rule="nonzero"/></clipPath><clipPath id="136b89d369"><rect x="0" width="311" y="0" height="311"/></clipPath><clipPath id="8ac2bb31c2"><path d="M 842.296875 563.542969 L 901.207031 563.542969 L 901.207031 622.457031 L 842.296875 622.457031 Z M 842.296875 563.542969 " clip-rule="nonzero"/></clipPath><clipPath id="0e1a38a118"><path d="M 871.75 563.542969 C 855.484375 563.542969 842.296875 576.730469 842.296875 593 C 842.296875 609.269531 855.484375 622.457031 871.75 622.457031 C 888.019531 622.457031 901.207031 609.269531 901.207031 593 C 901.207031 576.730469 888.019531 563.542969 871.75 563.542969 Z M 871.75 563.542969 " clip-rule="nonzero"/></clipPath><clipPath id="0b18774369"><path d="M 0.296875 0.542969 L 59.207031 0.542969 L 59.207031 59.457031 L 0.296875 59.457031 Z M 0.296875 0.542969 " clip-rule="nonzero"/></clipPath><clipPath id="5995905856"><path d="M 29.75 0.542969 C 13.484375 0.542969 0.296875 13.730469 0.296875 30 C 0.296875 46.269531 13.484375 59.457031 29.75 59.457031 C 46.019531 59.457031 59.207031 46.269531 59.207031 30 C 59.207031 13.730469 46.019531 0.542969 29.75 0.542969 Z M 29.75 0.542969 " clip-rule="nonzero"/></clipPath><clipPath id="0020255d59"><rect x="0" width="60" y="0" height="60"/></clipPath><clipPath id="a4a73184f6"><path d="M 692.839844 446.960938 L 751.753906 446.960938 L 751.753906 505.871094 L 692.839844 505.871094 Z M 692.839844 446.960938 " clip-rule="nonzero"/></clipPath><clipPath id="7c97ccfea2"><path d="M 722.296875 446.960938 C 706.027344 446.960938 692.839844 460.148438 692.839844 476.414062 C 692.839844 492.683594 706.027344 505.871094 722.296875 505.871094 C 738.566406 505.871094 751.753906 492.683594 751.753906 476.414062 C 751.753906 460.148438 738.566406 446.960938 722.296875 446.960938 Z M 722.296875 446.960938 " clip-rule="nonzero"/></clipPath><clipPath id="cc6ce4fa75"><path d="M 0.839844 0.960938 L 59.753906 0.960938 L 59.753906 59.871094 L 0.839844 59.871094 Z M 0.839844 0.960938 " clip-rule="nonzero"/></clipPath><clipPath id="01f4988ef3"><path d="M 30.296875 0.960938 C 14.027344 0.960938 0.839844 14.148438 0.839844 30.414062 C 0.839844 46.683594 14.027344 59.871094 30.296875 59.871094 C 46.566406 59.871094 59.753906 46.683594 59.753906 30.414062 C 59.753906 14.148438 46.566406 0.960938 30.296875 0.960938 Z M 30.296875 0.960938 " clip-rule="nonzero"/></clipPath><clipPath id="46eeee8f27"><rect x="0" width="60" y="0" height="60"/></clipPath></defs><path fill="#feac7c" d="M 532.414062 610.042969 C 534.726562 588.179688 500.757812 464.503906 489.269531 447.5625 C 477.78125 430.621094 461.433594 432.140625 407.648438 451.039062 C 353.867188 469.941406 356.179688 533.460938 356.179688 533.460938 C 356.179688 533.460938 342.871094 567.667969 337.007812 577.816406 C 331.144531 587.96875 339.113281 594.820312 347.605469 592.953125 C 356.097656 591.089844 365.621094 582.410156 365.621094 582.410156 L 364.125 607.324219 C 364.125 607.324219 365.179688 618.886719 377.152344 613.230469 C 389.121094 607.574219 392.667969 596.410156 392.667969 596.410156 C 392.667969 596.410156 391.296875 617.203125 413.894531 611.558594 C 436.492188 605.914062 446.164062 611.496094 447.769531 615.96875 C 449.378906 620.441406 468.03125 653.4375 469.964844 654.554688 C 471.898438 655.667969 520.753906 639.722656 527.96875 636.15625 C 535.1875 632.589844 532.414062 610.042969 532.414062 610.042969 Z M 532.414062 610.042969 " fill-opacity="1" fill-rule="nonzero"/><path fill="#ff4b3d" d="M 416.808594 508.847656 C 416.808594 508.847656 428.945312 524.386719 438.511719 529.589844 C 448.078125 534.789062 464.535156 536.710938 473.800781 555.273438 C 479.796875 567.28125 461.59375 566.914062 461.59375 566.914062 C 461.59375 566.914062 432.410156 551.035156 417.464844 533.386719 C 402.515625 515.738281 416.808594 508.847656 416.808594 508.847656 Z M 416.808594 508.847656 " fill-opacity="1" fill-rule="nonzero"/><path fill="#ff4b3d" d="M 364.707031 530.972656 C 363.988281 533.617188 385.644531 560.292969 390.929688 567.050781 C 396.214844 573.804688 416.699219 607.539062 426.925781 612.152344 C 437.152344 616.765625 398.746094 542.078125 385.226562 529.765625 C 371.710938 517.453125 365.785156 529.664062 364.707031 530.972656 Z M 364.707031 530.972656 " fill-opacity="1" fill-rule="nonzero"/><path fill="#7738c7" d="M 53.417969 266.890625 C 53.417969 266.890625 154.378906 234.941406 234.738281 196.261719 C 315.097656 157.578125 359.242188 117.96875 373.761719 138.59375 C 388.277344 159.21875 423.414062 323.847656 462.84375 379.46875 C 502.273438 435.089844 503.335938 429.902344 504.113281 441.953125 C 504.890625 454 395.597656 537.203125 295.058594 582.925781 C 169.945312 639.824219 155.109375 631.035156 153.539062 594.6875 C 151.972656 558.339844 84.027344 390.242188 56.761719 340.347656 C 29.492188 290.457031 10.097656 276.042969 53.417969 266.890625 Z M 53.417969 266.890625 " fill-opacity="1" fill-rule="nonzero"/><path fill="#171d8f" d="M 427.4375 302.546875 C 427.402344 316.703125 425.632812 402.148438 388.878906 476.335938 C 348.707031 557.425781 280.449219 587.976562 280.449219 587.976562 C 280.449219 587.976562 281.054688 588.667969 281.398438 589.0625 C 285.816406 587.097656 290.332031 585.074219 295.058594 582.925781 C 395.597656 537.203125 504.890625 454 504.113281 441.949219 C 503.335938 429.902344 502.273438 435.089844 462.84375 379.46875 C 450.449219 361.980469 438.476562 333.71875 427.4375 302.546875 Z M 427.4375 302.546875 " fill-opacity="1" fill-rule="nonzero"/><path fill="#feac7c" d="M 445.117188 651.8125 C 441.398438 647.085938 412.640625 628.234375 400.128906 584.605469 C 387.617188 540.972656 356.773438 517.371094 356.238281 497.085938 C 355.707031 476.800781 370.726562 470.324219 389.03125 488.300781 C 407.335938 506.277344 426.109375 535.15625 442.335938 537.757812 C 458.5625 540.355469 480.578125 556.925781 490.949219 575.800781 C 501.320312 594.675781 514.984375 618.207031 492.910156 641.050781 C 470.835938 663.898438 452.601562 658.386719 445.117188 651.8125 Z M 445.117188 651.8125 " fill-opacity="1" fill-rule="nonzero"/><path fill="#ff4b3d" d="M 365.621094 582.40625 C 365.621094 582.40625 373.390625 563.371094 375.167969 557.792969 C 376.941406 552.210938 371.191406 563.554688 367.09375 570.371094 C 362.996094 577.1875 365.621094 582.40625 365.621094 582.40625 Z M 365.621094 582.40625 " fill-opacity="1" fill-rule="nonzero"/><path fill="#ff4b3d" d="M 437.300781 534.269531 C 438.015625 532.636719 445.945312 525.023438 453.816406 522.046875 C 461.691406 519.070312 448.253906 515.304688 441.519531 521.441406 C 434.78125 527.578125 431.933594 529.351562 431.933594 529.351562 Z M 437.300781 534.269531 " fill-opacity="1" fill-rule="nonzero"/><path fill="#ffffff" d="M 165.523438 312.492188 C 165.523438 312.492188 174.363281 240.207031 245.867188 231.371094 C 317.375 222.535156 388.878906 294.820312 350.3125 355.058594 C 311.75 415.296875 269.167969 412.886719 261.933594 440.195312 C 254.703125 467.503906 267.558594 494.007812 242.652344 496.417969 C 217.746094 498.824219 213.730469 434.574219 237.832031 409.675781 C 261.933594 384.777344 325.40625 356.664062 314.960938 313.292969 C 304.515625 269.921875 259.523438 268.316406 238.636719 290.003906 C 217.746094 311.6875 237.832031 330.160156 214.53125 346.222656 C 191.234375 362.289062 155.882812 363.089844 165.523438 312.492188 Z M 165.523438 312.492188 " fill-opacity="1" fill-rule="nonzero"/><path fill="#ffffff" d="M 223.566406 520.964844 C 214.726562 535.421875 213.121094 564.335938 239.636719 560.320312 C 266.148438 556.304688 262.132812 535.421875 261.328125 524.980469 C 260.523438 514.539062 236.421875 504.097656 223.566406 520.964844 Z M 223.566406 520.964844 " fill-opacity="1" fill-rule="nonzero"/><path fill="#ffc517" d="M 395.234375 181.152344 C 395.234375 181.152344 420.511719 129.320312 476.320312 141.152344 C 532.132812 152.984375 567.003906 225.542969 522.585938 260.691406 C 478.164062 295.835938 446.910156 283.050781 434.445312 301.625 C 421.984375 320.203125 424.765625 343.363281 405.496094 338.742188 C 386.230469 334.121094 399.808594 284.980469 424.28125 272.5625 C 448.75 260.136719 503.523438 255.46875 506.898438 220.304688 C 510.277344 185.140625 477.011719 172.332031 455.773438 183.179688 C 434.539062 194.023438 444.804688 213.035156 423.214844 219.046875 C 401.628906 225.0625 374.957031 216.546875 395.234375 181.152344 Z M 395.234375 181.152344 " fill-opacity="1" fill-rule="nonzero"/><path fill="#ffc517" d="M 384.871094 352.195312 C 374.523438 360.738281 365.859375 381.96875 386.742188 385.800781 C 407.628906 389.632812 410.011719 372.964844 412.105469 364.941406 C 414.199219 356.917969 398.847656 342.882812 384.871094 352.195312 Z M 384.871094 352.195312 " fill-opacity="1" fill-rule="nonzero"/><path fill="#ff4b3d" d="M 20.488281 518.976562 C 20.488281 518.976562 5.820312 472.394531 47.023438 447.164062 C 88.230469 421.933594 151.949219 446.234375 145.125 493.707031 C 138.300781 541.183594 111.632812 551.523438 114.796875 570.203125 C 117.964844 588.882812 133.167969 601.5 118.628906 609.878906 C 104.09375 618.257812 83.804688 580.140625 91.609375 558.253906 C 99.414062 536.367188 130.363281 501.597656 111.949219 478.015625 C 93.535156 454.433594 65.617188 465.933594 58.882812 484.96875 C 52.148438 504.003906 69.539062 509.707031 59.773438 525.976562 C 50.007812 542.25 28.644531 552.542969 20.488281 518.976562 Z M 20.488281 518.976562 " fill-opacity="1" fill-rule="nonzero"/><path fill="#ff4b3d" d="M 113.792969 630.160156 C 112.40625 641.4375 119.453125 659.539062 134.527344 649.730469 C 149.597656 639.925781 141.351562 628.289062 137.960938 622.136719 C 134.570312 615.984375 116.957031 616.296875 113.792969 630.160156 Z M 113.792969 630.160156 " fill-opacity="1" fill-rule="nonzero"/><path fill="#fecd91" d="M 370.804688 486.578125 C 370 486.578125 358.953125 487.378906 363.570312 502.039062 C 368.191406 516.695312 372.410156 517.902344 380.445312 514.890625 C 388.476562 511.878906 394.90625 504.046875 387.875 497.820312 C 380.84375 491.597656 376.828125 486.375 370.804688 486.578125 Z M 370.804688 486.578125 " fill-opacity="1" fill-rule="nonzero"/><g transform="matrix(1, 0, 0, 1, 560, 187)"><g clip-path="url(#c5f2a57f40)"><g fill="#fdb811" fill-opacity="0.4"><g transform="translate(4.271246, 109.478946)"><g><path d="M 66.375 -101.765625 L 118.375 -101.765625 L 97.421875 -51.703125 L 117.9375 0 L 65.703125 0 L 59.046875 -21.40625 L 55.078125 -19.609375 L 55.078125 0 L 5.3125 0 L 5.3125 -101.765625 L 55.078125 -101.765625 L 55.078125 -67.265625 Z M 66.375 -101.765625 "/></g></g><g transform="translate(123.546093, 109.478946)"><g><path d="M 79.390625 0 L 25.0625 0 L -0.59375 -101.84375 L 49.15625 -101.84375 L 56.71875 -49.15625 L 57.546875 -41.90625 L 58.21875 -41.90625 L 59.046875 -49.234375 L 66.96875 -101.84375 L 101.015625 -101.84375 L 108.796875 -49.234375 L 109.625 -41.90625 L 110.296875 -41.90625 L 111.125 -49.15625 L 118.828125 -101.84375 L 168.4375 -101.84375 L 142.703125 0 L 88.453125 0 L 84.1875 -37.1875 L 83.65625 -37.1875 Z M 79.390625 0 "/></g></g><g transform="translate(291.383911, 109.478946)"><g><path d="M 70.859375 0 L 21.109375 0 L 21.109375 -60.609375 L 0.453125 -60.609375 L 0.453125 -101.765625 L 91.296875 -101.765625 L 91.296875 -60.609375 L 70.859375 -60.609375 Z M 70.859375 0 "/></g></g><g transform="translate(383.122281, 109.478946)"><g/></g><g transform="translate(422.85562, 109.478946)"><g><path d="M 80.140625 0 L 5.3125 0 L 5.3125 -101.765625 L 55.078125 -101.765625 L 55.078125 -41.15625 L 80.140625 -41.15625 Z M 80.140625 0 "/></g></g><g transform="translate(505.689532, 109.478946)"><g><path d="M 60.015625 2.84375 C 47.742188 2.84375 37.242188 0.710938 28.515625 -3.546875 C 19.785156 -7.816406 13.097656 -13.976562 8.453125 -22.03125 C 3.816406 -30.09375 1.5 -39.757812 1.5 -51.03125 C 1.5 -62.300781 3.816406 -71.925781 8.453125 -79.90625 C 13.097656 -87.894531 19.785156 -94.019531 28.515625 -98.28125 C 37.242188 -102.550781 47.742188 -104.6875 60.015625 -104.6875 C 72.285156 -104.6875 82.796875 -102.550781 91.546875 -98.28125 C 100.304688 -94.019531 107.003906 -87.894531 111.640625 -79.90625 C 116.285156 -71.925781 118.609375 -62.300781 118.609375 -51.03125 C 118.609375 -39.757812 116.285156 -30.09375 111.640625 -22.03125 C 107.003906 -13.976562 100.304688 -7.816406 91.546875 -3.546875 C 82.796875 0.710938 72.285156 2.84375 60.015625 2.84375 Z M 59.9375 -43.03125 C 62.132812 -43.03125 63.976562 -43.800781 65.46875 -45.34375 C 66.96875 -46.894531 67.71875 -48.816406 67.71875 -51.109375 C 67.71875 -53.398438 66.96875 -55.316406 65.46875 -56.859375 C 63.976562 -58.410156 62.132812 -59.1875 59.9375 -59.1875 C 57.789062 -59.1875 55.957031 -58.410156 54.4375 -56.859375 C 52.914062 -55.316406 52.15625 -53.398438 52.15625 -51.109375 C 52.15625 -48.816406 52.914062 -46.894531 54.4375 -45.34375 C 55.957031 -43.800781 57.789062 -43.03125 59.9375 -43.03125 Z M 59.9375 -43.03125 "/></g></g><g transform="translate(625.787481, 109.478946)"><g><path d="M 59.265625 2.765625 C 51.285156 2.765625 43.800781 1.566406 36.8125 -0.828125 C 29.832031 -3.222656 23.695312 -6.710938 18.40625 -11.296875 C 13.113281 -15.890625 8.972656 -21.523438 5.984375 -28.203125 C 2.992188 -34.890625 1.5 -42.5 1.5 -51.03125 C 1.5 -59.5625 2.992188 -67.15625 5.984375 -73.8125 C 8.972656 -80.476562 13.113281 -86.09375 18.40625 -90.65625 C 23.695312 -95.21875 29.832031 -98.679688 36.8125 -101.046875 C 43.800781 -103.421875 51.285156 -104.609375 59.265625 -104.609375 C 64.503906 -104.609375 69.703125 -104.097656 74.859375 -103.078125 C 80.023438 -102.054688 84.941406 -100.4375 89.609375 -98.21875 C 94.273438 -96 98.453125 -93.101562 102.140625 -89.53125 C 105.828125 -85.96875 108.816406 -81.65625 111.109375 -76.59375 C 113.410156 -71.53125 114.757812 -65.65625 115.15625 -58.96875 L 67.5 -58.96875 C 66.445312 -60.507812 65.25 -61.601562 63.90625 -62.25 C 62.5625 -62.90625 60.890625 -63.234375 58.890625 -63.234375 C 57.347656 -63.234375 55.75 -62.78125 54.09375 -61.875 C 52.445312 -60.976562 51.0625 -59.582031 49.9375 -57.6875 C 48.820312 -55.789062 48.265625 -53.347656 48.265625 -50.359375 C 48.265625 -48.265625 48.6875 -46.207031 49.53125 -44.1875 C 50.382812 -42.164062 51.609375 -40.492188 53.203125 -39.171875 C 54.796875 -37.847656 56.664062 -37.1875 58.8125 -37.1875 C 61.40625 -37.1875 63.523438 -37.785156 65.171875 -38.984375 C 66.816406 -40.179688 67.863281 -41.601562 68.3125 -43.25 L 57.84375 -43.25 L 57.84375 -52.984375 L 115.234375 -52.984375 C 115.429688 -43.703125 114.242188 -35.582031 111.671875 -28.625 C 109.109375 -21.664062 105.367188 -15.863281 100.453125 -11.21875 C 95.546875 -6.582031 89.609375 -3.09375 82.640625 -0.75 C 75.679688 1.59375 67.890625 2.765625 59.265625 2.765625 Z M 59.265625 2.765625 "/></g></g><g transform="translate(742.518197, 109.478946)"><g><path d="M 60.015625 2.84375 C 47.742188 2.84375 37.242188 0.710938 28.515625 -3.546875 C 19.785156 -7.816406 13.097656 -13.976562 8.453125 -22.03125 C 3.816406 -30.09375 1.5 -39.757812 1.5 -51.03125 C 1.5 -62.300781 3.816406 -71.925781 8.453125 -79.90625 C 13.097656 -87.894531 19.785156 -94.019531 28.515625 -98.28125 C 37.242188 -102.550781 47.742188 -104.6875 60.015625 -104.6875 C 72.285156 -104.6875 82.796875 -102.550781 91.546875 -98.28125 C 100.304688 -94.019531 107.003906 -87.894531 111.640625 -79.90625 C 116.285156 -71.925781 118.609375 -62.300781 118.609375 -51.03125 C 118.609375 -39.757812 116.285156 -30.09375 111.640625 -22.03125 C 107.003906 -13.976562 100.304688 -7.816406 91.546875 -3.546875 C 82.796875 0.710938 72.285156 2.84375 60.015625 2.84375 Z M 59.9375 -43.03125 C 62.132812 -43.03125 63.976562 -43.800781 65.46875 -45.34375 C 66.96875 -46.894531 67.71875 -48.816406 67.71875 -51.109375 C 67.71875 -53.398438 66.96875 -55.316406 65.46875 -56.859375 C 63.976562 -58.410156 62.132812 -59.1875 59.9375 -59.1875 C 57.789062 -59.1875 55.957031 -58.410156 54.4375 -56.859375 C 52.914062 -55.316406 52.15625 -53.398438 52.15625 -51.109375 C 52.15625 -48.816406 52.914062 -46.894531 54.4375 -45.34375 C 55.957031 -43.800781 57.789062 -43.03125 59.9375 -43.03125 Z M 59.9375 -43.03125 "/></g></g></g><g fill="#ffc517" fill-opacity="1"><g transform="translate(4.271246, 109.478946)"><g><path d="M 66.375 -101.765625 L 118.375 -101.765625 L 97.421875 -51.703125 L 117.9375 0 L 65.703125 0 L 59.046875 -21.40625 L 55.078125 -19.609375 L 55.078125 0 L 5.3125 0 L 5.3125 -101.765625 L 55.078125 -101.765625 L 55.078125 -67.265625 Z M 66.375 -101.765625 "/></g></g><g transform="translate(123.546093, 109.478946)"><g><path d="M 79.390625 0 L 25.0625 0 L -0.59375 -101.84375 L 49.15625 -101.84375 L 56.71875 -49.15625 L 57.546875 -41.90625 L 58.21875 -41.90625 L 59.046875 -49.234375 L 66.96875 -101.84375 L 101.015625 -101.84375 L 108.796875 -49.234375 L 109.625 -41.90625 L 110.296875 -41.90625 L 111.125 -49.15625 L 118.828125 -101.84375 L 168.4375 -101.84375 L 142.703125 0 L 88.453125 0 L 84.1875 -37.1875 L 83.65625 -37.1875 Z M 79.390625 0 "/></g></g><g transform="translate(291.383911, 109.478946)"><g><path d="M 70.859375 0 L 21.109375 0 L 21.109375 -60.609375 L 0.453125 -60.609375 L 0.453125 -101.765625 L 91.296875 -101.765625 L 91.296875 -60.609375 L 70.859375 -60.609375 Z M 70.859375 0 "/></g></g><g transform="translate(383.122281, 109.478946)"><g/></g><g transform="translate(422.85562, 109.478946)"><g><path d="M 80.140625 0 L 5.3125 0 L 5.3125 -101.765625 L 55.078125 -101.765625 L 55.078125 -41.15625 L 80.140625 -41.15625 Z M 80.140625 0 "/></g></g><g transform="translate(505.689532, 109.478946)"><g><path d="M 60.015625 2.84375 C 47.742188 2.84375 37.242188 0.710938 28.515625 -3.546875 C 19.785156 -7.816406 13.097656 -13.976562 8.453125 -22.03125 C 3.816406 -30.09375 1.5 -39.757812 1.5 -51.03125 C 1.5 -62.300781 3.816406 -71.925781 8.453125 -79.90625 C 13.097656 -87.894531 19.785156 -94.019531 28.515625 -98.28125 C 37.242188 -102.550781 47.742188 -104.6875 60.015625 -104.6875 C 72.285156 -104.6875 82.796875 -102.550781 91.546875 -98.28125 C 100.304688 -94.019531 107.003906 -87.894531 111.640625 -79.90625 C 116.285156 -71.925781 118.609375 -62.300781 118.609375 -51.03125 C 118.609375 -39.757812 116.285156 -30.09375 111.640625 -22.03125 C 107.003906 -13.976562 100.304688 -7.816406 91.546875 -3.546875 C 82.796875 0.710938 72.285156 2.84375 60.015625 2.84375 Z M 59.9375 -43.03125 C 62.132812 -43.03125 63.976562 -43.800781 65.46875 -45.34375 C 66.96875 -46.894531 67.71875 -48.816406 67.71875 -51.109375 C 67.71875 -53.398438 66.96875 -55.316406 65.46875 -56.859375 C 63.976562 -58.410156 62.132812 -59.1875 59.9375 -59.1875 C 57.789062 -59.1875 55.957031 -58.410156 54.4375 -56.859375 C 52.914062 -55.316406 52.15625 -53.398438 52.15625 -51.109375 C 52.15625 -48.816406 52.914062 -46.894531 54.4375 -45.34375 C 55.957031 -43.800781 57.789062 -43.03125 59.9375 -43.03125 Z M 59.9375 -43.03125 "/></g></g><g transform="translate(625.787481, 109.478946)"><g><path d="M 59.265625 2.765625 C 51.285156 2.765625 43.800781 1.566406 36.8125 -0.828125 C 29.832031 -3.222656 23.695312 -6.710938 18.40625 -11.296875 C 13.113281 -15.890625 8.972656 -21.523438 5.984375 -28.203125 C 2.992188 -34.890625 1.5 -42.5 1.5 -51.03125 C 1.5 -59.5625 2.992188 -67.15625 5.984375 -73.8125 C 8.972656 -80.476562 13.113281 -86.09375 18.40625 -90.65625 C 23.695312 -95.21875 29.832031 -98.679688 36.8125 -101.046875 C 43.800781 -103.421875 51.285156 -104.609375 59.265625 -104.609375 C 64.503906 -104.609375 69.703125 -104.097656 74.859375 -103.078125 C 80.023438 -102.054688 84.941406 -100.4375 89.609375 -98.21875 C 94.273438 -96 98.453125 -93.101562 102.140625 -89.53125 C 105.828125 -85.96875 108.816406 -81.65625 111.109375 -76.59375 C 113.410156 -71.53125 114.757812 -65.65625 115.15625 -58.96875 L 67.5 -58.96875 C 66.445312 -60.507812 65.25 -61.601562 63.90625 -62.25 C 62.5625 -62.90625 60.890625 -63.234375 58.890625 -63.234375 C 57.347656 -63.234375 55.75 -62.78125 54.09375 -61.875 C 52.445312 -60.976562 51.0625 -59.582031 49.9375 -57.6875 C 48.820312 -55.789062 48.265625 -53.347656 48.265625 -50.359375 C 48.265625 -48.265625 48.6875 -46.207031 49.53125 -44.1875 C 50.382812 -42.164062 51.609375 -40.492188 53.203125 -39.171875 C 54.796875 -37.847656 56.664062 -37.1875 58.8125 -37.1875 C 61.40625 -37.1875 63.523438 -37.785156 65.171875 -38.984375 C 66.816406 -40.179688 67.863281 -41.601562 68.3125 -43.25 L 57.84375 -43.25 L 57.84375 -52.984375 L 115.234375 -52.984375 C 115.429688 -43.703125 114.242188 -35.582031 111.671875 -28.625 C 109.109375 -21.664062 105.367188 -15.863281 100.453125 -11.21875 C 95.546875 -6.582031 89.609375 -3.09375 82.640625 -0.75 C 75.679688 1.59375 67.890625 2.765625 59.265625 2.765625 Z M 59.265625 2.765625 "/></g></g><g transform="translate(742.518197, 109.478946)"><g><path d="M 60.015625 2.84375 C 47.742188 2.84375 37.242188 0.710938 28.515625 -3.546875 C 19.785156 -7.816406 13.097656 -13.976562 8.453125 -22.03125 C 3.816406 -30.09375 1.5 -39.757812 1.5 -51.03125 C 1.5 -62.300781 3.816406 -71.925781 8.453125 -79.90625 C 13.097656 -87.894531 19.785156 -94.019531 28.515625 -98.28125 C 37.242188 -102.550781 47.742188 -104.6875 60.015625 -104.6875 C 72.285156 -104.6875 82.796875 -102.550781 91.546875 -98.28125 C 100.304688 -94.019531 107.003906 -87.894531 111.640625 -79.90625 C 116.285156 -71.925781 118.609375 -62.300781 118.609375 -51.03125 C 118.609375 -39.757812 116.285156 -30.09375 111.640625 -22.03125 C 107.003906 -13.976562 100.304688 -7.816406 91.546875 -3.546875 C 82.796875 0.710938 72.285156 2.84375 60.015625 2.84375 Z M 59.9375 -43.03125 C 62.132812 -43.03125 63.976562 -43.800781 65.46875 -45.34375 C 66.96875 -46.894531 67.71875 -48.816406 67.71875 -51.109375 C 67.71875 -53.398438 66.96875 -55.316406 65.46875 -56.859375 C 63.976562 -58.410156 62.132812 -59.1875 59.9375 -59.1875 C 57.789062 -59.1875 55.957031 -58.410156 54.4375 -56.859375 C 52.914062 -55.316406 52.15625 -53.398438 52.15625 -51.109375 C 52.15625 -48.816406 52.914062 -46.894531 54.4375 -45.34375 C 55.957031 -43.800781 57.789062 -43.03125 59.9375 -43.03125 Z M 59.9375 -43.03125 "/></g></g></g></g></g><g transform="matrix(1, 0, 0, 1, 885, 363)"><g clip-path="url(#f2aa883bca)"><g clip-path="url(#b01507daa6)"><g fill="#fdb811" fill-opacity="0.4"><g transform="translate(0.514884, 235.151354)"><g><path d="M 106.8125 2.1875 C 92.195312 2.1875 78.414062 -0.628906 65.46875 -6.265625 C 52.519531 -11.898438 41.132812 -19.625 31.3125 -29.4375 C 21.5 -39.257812 13.828125 -50.585938 8.296875 -63.421875 C 2.765625 -76.265625 0 -90 0 -104.625 L 0 -171.96875 C 0 -181.15625 2.242188 -189.554688 6.734375 -197.171875 C 11.222656 -204.796875 17.328125 -210.90625 25.046875 -215.5 C 32.773438 -220.09375 41.238281 -222.390625 50.4375 -222.390625 C 59.625 -222.390625 67.972656 -220.09375 75.484375 -215.5 C 83.003906 -210.90625 88.957031 -204.796875 93.34375 -197.171875 C 97.726562 -189.554688 99.921875 -181.15625 99.921875 -171.96875 L 99.921875 -110.578125 C 99.921875 -108.691406 100.546875 -106.910156 101.796875 -105.234375 C 103.054688 -103.566406 104.726562 -102.734375 106.8125 -102.734375 C 108.6875 -102.734375 110.300781 -103.566406 111.65625 -105.234375 C 113.019531 -106.910156 113.703125 -108.691406 113.703125 -110.578125 L 113.703125 -171.96875 C 113.703125 -181.15625 115.945312 -189.554688 120.4375 -197.171875 C 124.925781 -204.796875 131.035156 -210.90625 138.765625 -215.5 C 146.492188 -220.09375 154.953125 -222.390625 164.140625 -222.390625 C 173.117188 -222.390625 181.3125 -220.09375 188.71875 -215.5 C 196.132812 -210.90625 202.140625 -204.796875 206.734375 -197.171875 C 211.328125 -189.554688 213.625 -181.15625 213.625 -171.96875 L 213.625 -104.625 C 213.625 -90 210.804688 -76.265625 205.171875 -63.421875 C 199.535156 -50.585938 191.804688 -39.257812 181.984375 -29.4375 C 172.171875 -19.625 160.84375 -11.898438 148 -6.265625 C 135.15625 -0.628906 121.425781 2.1875 106.8125 2.1875 Z M 106.8125 2.1875 "/></g></g></g></g><g fill="#fdb811" fill-opacity="0.4"><g transform="translate(222.909133, 235.151354)"><g><path d="M 49.484375 -0.3125 C 40.296875 -0.3125 31.941406 -2.609375 24.421875 -7.203125 C 16.910156 -11.796875 10.960938 -17.90625 6.578125 -25.53125 C 2.191406 -33.15625 0 -41.457031 0 -50.4375 L 0 -172.59375 C 0 -181.78125 2.191406 -190.078125 6.578125 -197.484375 C 10.960938 -204.898438 16.910156 -210.800781 24.421875 -215.1875 C 31.941406 -219.570312 40.296875 -221.765625 49.484375 -221.765625 C 59.097656 -221.765625 67.660156 -219.570312 75.171875 -215.1875 C 82.691406 -210.800781 88.695312 -204.898438 93.1875 -197.484375 C 97.675781 -190.078125 99.921875 -181.78125 99.921875 -172.59375 L 99.921875 -50.4375 C 99.921875 -41.457031 97.675781 -33.15625 93.1875 -25.53125 C 88.695312 -17.90625 82.691406 -11.796875 75.171875 -7.203125 C 67.660156 -2.609375 59.097656 -0.3125 49.484375 -0.3125 Z M 49.484375 -0.3125 "/></g></g></g><g fill="#fdb811" fill-opacity="0.4"><g transform="translate(332.853324, 235.151354)"><g><path d="M 151.609375 -222.703125 C 163.929688 -222.703125 174.003906 -219.675781 181.828125 -213.625 C 189.660156 -207.570312 195.195312 -199.953125 198.4375 -190.765625 C 201.675781 -181.578125 202.351562 -172.070312 200.46875 -162.25 C 198.59375 -152.4375 194 -143.875 186.6875 -136.5625 C 178.332031 -128.007812 169.664062 -119.296875 160.6875 -110.421875 C 151.707031 -101.546875 142.625 -92.515625 133.4375 -83.328125 C 133.019531 -82.484375 133.125 -81.644531 133.75 -80.8125 C 134.375 -79.976562 135.101562 -79.976562 135.9375 -80.8125 L 163.515625 -98.984375 C 174.785156 -96.265625 184.070312 -90.625 191.375 -82.0625 C 198.6875 -73.5 202.34375 -62.742188 202.34375 -49.796875 C 202.34375 -41.453125 200.097656 -33.519531 195.609375 -26 C 191.117188 -18.476562 185.113281 -12.265625 177.59375 -7.359375 C 170.082031 -2.453125 161.734375 0 152.546875 0 L 48.546875 0 C 39.359375 0 30.898438 -2.242188 23.171875 -6.734375 C 15.453125 -11.222656 9.296875 -17.222656 4.703125 -24.734375 C 0.109375 -32.253906 -2.1875 -40.609375 -2.1875 -49.796875 C -2.1875 -57.734375 -0.519531 -64.882812 2.8125 -71.25 C 6.15625 -77.625 10.4375 -83.109375 15.65625 -87.703125 L 65.46875 -138.453125 C 66.507812 -139.285156 66.613281 -140.171875 65.78125 -141.109375 C 64.945312 -142.046875 64.003906 -142.304688 62.953125 -141.890625 L 37.28125 -123.734375 C 26.207031 -126.441406 16.960938 -132.285156 9.546875 -141.265625 C 2.140625 -150.242188 -1.5625 -160.789062 -1.5625 -172.90625 C -1.5625 -182.09375 0.679688 -190.441406 5.171875 -197.953125 C 9.660156 -205.472656 15.710938 -211.476562 23.328125 -215.96875 C 30.953125 -220.457031 39.359375 -222.703125 48.546875 -222.703125 Z M 151.609375 -222.703125 "/></g></g></g><g clip-path="url(#228c0f7275)"><g fill="#ff4b3d" fill-opacity="1"><g transform="translate(0.514884, 235.151354)"><g><path d="M 106.8125 2.1875 C 92.195312 2.1875 78.414062 -0.628906 65.46875 -6.265625 C 52.519531 -11.898438 41.132812 -19.625 31.3125 -29.4375 C 21.5 -39.257812 13.828125 -50.585938 8.296875 -63.421875 C 2.765625 -76.265625 0 -90 0 -104.625 L 0 -171.96875 C 0 -181.15625 2.242188 -189.554688 6.734375 -197.171875 C 11.222656 -204.796875 17.328125 -210.90625 25.046875 -215.5 C 32.773438 -220.09375 41.238281 -222.390625 50.4375 -222.390625 C 59.625 -222.390625 67.972656 -220.09375 75.484375 -215.5 C 83.003906 -210.90625 88.957031 -204.796875 93.34375 -197.171875 C 97.726562 -189.554688 99.921875 -181.15625 99.921875 -171.96875 L 99.921875 -110.578125 C 99.921875 -108.691406 100.546875 -106.910156 101.796875 -105.234375 C 103.054688 -103.566406 104.726562 -102.734375 106.8125 -102.734375 C 108.6875 -102.734375 110.300781 -103.566406 111.65625 -105.234375 C 113.019531 -106.910156 113.703125 -108.691406 113.703125 -110.578125 L 113.703125 -171.96875 C 113.703125 -181.15625 115.945312 -189.554688 120.4375 -197.171875 C 124.925781 -204.796875 131.035156 -210.90625 138.765625 -215.5 C 146.492188 -220.09375 154.953125 -222.390625 164.140625 -222.390625 C 173.117188 -222.390625 181.3125 -220.09375 188.71875 -215.5 C 196.132812 -210.90625 202.140625 -204.796875 206.734375 -197.171875 C 211.328125 -189.554688 213.625 -181.15625 213.625 -171.96875 L 213.625 -104.625 C 213.625 -90 210.804688 -76.265625 205.171875 -63.421875 C 199.535156 -50.585938 191.804688 -39.257812 181.984375 -29.4375 C 172.171875 -19.625 160.84375 -11.898438 148 -6.265625 C 135.15625 -0.628906 121.425781 2.1875 106.8125 2.1875 Z M 106.8125 2.1875 "/></g></g></g></g><g fill="#ff4b3d" fill-opacity="1"><g transform="translate(222.909133, 235.151354)"><g><path d="M 49.484375 -0.3125 C 40.296875 -0.3125 31.941406 -2.609375 24.421875 -7.203125 C 16.910156 -11.796875 10.960938 -17.90625 6.578125 -25.53125 C 2.191406 -33.15625 0 -41.457031 0 -50.4375 L 0 -172.59375 C 0 -181.78125 2.191406 -190.078125 6.578125 -197.484375 C 10.960938 -204.898438 16.910156 -210.800781 24.421875 -215.1875 C 31.941406 -219.570312 40.296875 -221.765625 49.484375 -221.765625 C 59.097656 -221.765625 67.660156 -219.570312 75.171875 -215.1875 C 82.691406 -210.800781 88.695312 -204.898438 93.1875 -197.484375 C 97.675781 -190.078125 99.921875 -181.78125 99.921875 -172.59375 L 99.921875 -50.4375 C 99.921875 -41.457031 97.675781 -33.15625 93.1875 -25.53125 C 88.695312 -17.90625 82.691406 -11.796875 75.171875 -7.203125 C 67.660156 -2.609375 59.097656 -0.3125 49.484375 -0.3125 Z M 49.484375 -0.3125 "/></g></g></g><g fill="#ff4b3d" fill-opacity="1"><g transform="translate(332.853324, 235.151354)"><g><path d="M 151.609375 -222.703125 C 163.929688 -222.703125 174.003906 -219.675781 181.828125 -213.625 C 189.660156 -207.570312 195.195312 -199.953125 198.4375 -190.765625 C 201.675781 -181.578125 202.351562 -172.070312 200.46875 -162.25 C 198.59375 -152.4375 194 -143.875 186.6875 -136.5625 C 178.332031 -128.007812 169.664062 -119.296875 160.6875 -110.421875 C 151.707031 -101.546875 142.625 -92.515625 133.4375 -83.328125 C 133.019531 -82.484375 133.125 -81.644531 133.75 -80.8125 C 134.375 -79.976562 135.101562 -79.976562 135.9375 -80.8125 L 163.515625 -98.984375 C 174.785156 -96.265625 184.070312 -90.625 191.375 -82.0625 C 198.6875 -73.5 202.34375 -62.742188 202.34375 -49.796875 C 202.34375 -41.453125 200.097656 -33.519531 195.609375 -26 C 191.117188 -18.476562 185.113281 -12.265625 177.59375 -7.359375 C 170.082031 -2.453125 161.734375 0 152.546875 0 L 48.546875 0 C 39.359375 0 30.898438 -2.242188 23.171875 -6.734375 C 15.453125 -11.222656 9.296875 -17.222656 4.703125 -24.734375 C 0.109375 -32.253906 -2.1875 -40.609375 -2.1875 -49.796875 C -2.1875 -57.734375 -0.519531 -64.882812 2.8125 -71.25 C 6.15625 -77.625 10.4375 -83.109375 15.65625 -87.703125 L 65.46875 -138.453125 C 66.507812 -139.285156 66.613281 -140.171875 65.78125 -141.109375 C 64.945312 -142.046875 64.003906 -142.304688 62.953125 -141.890625 L 37.28125 -123.734375 C 26.207031 -126.441406 16.960938 -132.285156 9.546875 -141.265625 C 2.140625 -150.242188 -1.5625 -160.789062 -1.5625 -172.90625 C -1.5625 -182.09375 0.679688 -190.441406 5.171875 -197.953125 C 9.660156 -205.472656 15.710938 -211.476562 23.328125 -215.96875 C 30.953125 -220.457031 39.359375 -222.703125 48.546875 -222.703125 Z M 151.609375 -222.703125 "/></g></g></g></g></g><g clip-path="url(#cf156072de)"><g clip-path="url(#c5035011a1)"><g transform="matrix(1, 0, 0, 1, 567, 321)"><g clip-path="url(#136b89d369)"><g clip-path="url(#104c2d5435)"><g clip-path="url(#6abe541bf5)"><path fill="#ff4b3d" d="M 0.421875 0.542969 L 310.167969 0.542969 L 310.167969 310.289062 L 0.421875 310.289062 Z M 0.421875 0.542969 " fill-opacity="1" fill-rule="nonzero"/></g></g></g></g></g></g><g clip-path="url(#8ac2bb31c2)"><g clip-path="url(#0e1a38a118)"><g transform="matrix(1, 0, 0, 1, 842, 563)"><g clip-path="url(#0020255d59)"><g clip-path="url(#0b18774369)"><g clip-path="url(#5995905856)"><path fill="#ff4b3d" d="M 0.296875 0.542969 L 59.207031 0.542969 L 59.207031 59.457031 L 0.296875 59.457031 Z M 0.296875 0.542969 " fill-opacity="1" fill-rule="nonzero"/></g></g></g></g></g></g><g clip-path="url(#a4a73184f6)"><g clip-path="url(#7c97ccfea2)"><g transform="matrix(1, 0, 0, 1, 692, 446)"><g clip-path="url(#46eeee8f27)"><g clip-path="url(#cc6ce4fa75)"><g clip-path="url(#01f4988ef3)"><path fill="#ffffff" d="M 0.839844 0.960938 L 59.753906 0.960938 L 59.753906 59.871094 L 0.839844 59.871094 Z M 0.839844 0.960938 " fill-opacity="1" fill-rule="nonzero"/></g></g></g></g></g></g></svg>