<svg xmlns="http://www.w3.org/2000/svg" xmlns:xlink="http://www.w3.org/1999/xlink" width="280" zoomAndPan="magnify" viewBox="0 0 210 209.999996" height="280" preserveAspectRatio="xMidYMid meet" version="1.0"><metadata><ContainsAiGeneratedContent>Yes</ContainsAiGeneratedContent></metadata><defs><clipPath id="fab03f6527"><path d="M 10.867188 10.867188 L 199.132812 10.867188 L 199.132812 199.132812 L 10.867188 199.132812 Z M 10.867188 10.867188 " clip-rule="nonzero"/></clipPath><clipPath id="89f5ca406e"><path d="M 105 10.867188 C 53.011719 10.867188 10.867188 53.011719 10.867188 105 C 10.867188 156.988281 53.011719 199.132812 105 199.132812 C 156.988281 199.132812 199.132812 156.988281 199.132812 105 C 199.132812 53.011719 156.988281 10.867188 105 10.867188 Z M 105 10.867188 " clip-rule="nonzero"/></clipPath><clipPath id="656ccbd17c"><path d="M 0.867188 0.867188 L 189.132812 0.867188 L 189.132812 189.132812 L 0.867188 189.132812 Z M 0.867188 0.867188 " clip-rule="nonzero"/></clipPath><clipPath id="cdea4bd78b"><path d="M 95 0.867188 C 43.011719 0.867188 0.867188 43.011719 0.867188 95 C 0.867188 146.988281 43.011719 189.132812 95 189.132812 C 146.988281 189.132812 189.132812 146.988281 189.132812 95 C 189.132812 43.011719 146.988281 0.867188 95 0.867188 Z M 95 0.867188 " clip-rule="nonzero"/></clipPath><clipPath id="e3017893a2"><rect x="0" width="190" y="0" height="190"/></clipPath><clipPath id="6fb141c3d2"><path d="M 38.625 38.625 L 171.375 38.625 L 171.375 171.375 L 38.625 171.375 Z M 38.625 38.625 " clip-rule="nonzero"/></clipPath><clipPath id="c5ce398bb3"><path d="M 105 38.625 C 68.339844 38.625 38.625 68.339844 38.625 105 C 38.625 141.660156 68.339844 171.375 105 171.375 C 141.660156 171.375 171.375 141.660156 171.375 105 C 171.375 68.339844 141.660156 38.625 105 38.625 Z M 105 38.625 " clip-rule="nonzero"/></clipPath><clipPath id="ae4bf4acf8"><path d="M 0.625 0.625 L 133.375 0.625 L 133.375 133.375 L 0.625 133.375 Z M 0.625 0.625 " clip-rule="nonzero"/></clipPath><clipPath id="61c7fa8d10"><path d="M 67 0.625 C 30.339844 0.625 0.625 30.339844 0.625 67 C 0.625 103.660156 30.339844 133.375 67 133.375 C 103.660156 133.375 133.375 103.660156 133.375 67 C 133.375 30.339844 103.660156 0.625 67 0.625 Z M 67 0.625 " clip-rule="nonzero"/></clipPath><clipPath id="9962e72e0a"><rect x="0" width="134" y="0" height="134"/></clipPath></defs><rect x="-21" width="252" fill="#ffffff" y="-21" height="251.999995" fill-opacity="1"/><rect x="-21" width="252" fill="#ffffff" y="-21" height="251.999995" fill-opacity="1"/><g clip-path="url(#fab03f6527)"><g clip-path="url(#89f5ca406e)"><g transform="matrix(1, 0, 0, 1, 10, 10)"><g clip-path="url(#e3017893a2)"><g clip-path="url(#656ccbd17c)"><g clip-path="url(#cdea4bd78b)"><path fill="#f26934" d="M 0.867188 0.867188 L 189.132812 0.867188 L 189.132812 189.132812 L 0.867188 189.132812 Z M 0.867188 0.867188 " fill-opacity="1" fill-rule="nonzero"/></g></g></g></g></g></g><g clip-path="url(#6fb141c3d2)"><g clip-path="url(#c5ce398bb3)"><g transform="matrix(1, 0, 0, 1, 38, 38)"><g clip-path="url(#9962e72e0a)"><g clip-path="url(#ae4bf4acf8)"><g clip-path="url(#61c7fa8d10)"><path fill="#035aa7" d="M 0.625 0.625 L 133.375 0.625 L 133.375 133.375 L 0.625 133.375 Z M 0.625 0.625 " fill-opacity="1" fill-rule="nonzero"/></g></g></g></g></g></g></svg>